<?xml version="1.0" standalone="no"?>
<!DOCTYPE svg PUBLIC "-//W3C//DTD SVG 20010904//EN"
 "http://www.w3.org/TR/2001/REC-SVG-20010904/DTD/svg10.dtd">
<svg version="1.0" xmlns="http://www.w3.org/2000/svg"
 width="891.000000pt" height="169.000000pt" viewBox="0 0 891.000000 169.000000"
 preserveAspectRatio="xMidYMid meet">

<g transform="translate(0.000000,169.000000) scale(0.100000,-0.100000)"
fill="#ffffffff" stroke="none">
<path d="M705 1611 c-44 -31 -80 -63 -80 -69 0 -17 448 -303 458 -293 4 4 6
58 5 120 l-3 113 -138 94 c-75 52 -143 94 -150 94 -6 -1 -48 -27 -92 -59z"/>
<path d="M1167 1583 c-4 -3 -7 -95 -7 -204 l0 -198 105 -71 105 -72 0 -196 0
-195 38 -36 c69 -65 149 -131 160 -131 16 0 17 46 12 374 l-5 299 -102 70
-103 69 0 133 c0 74 -3 140 -6 149 -5 13 -23 16 -98 16 -51 0 -96 -3 -99 -7z"/>
<path d="M278 1317 l-257 -172 -1 -122 c0 -76 4 -123 10 -123 9 0 127 80 511
346 42 29 97 67 123 84 30 20 46 38 44 49 -3 13 -149 111 -167 111 -3 0 -122
-78 -263 -173z"/>
<path d="M3970 1045 c-157 -50 -260 -204 -247 -370 7 -90 36 -155 99 -218 44
-44 134 -97 167 -97 7 0 38 -23 68 -50 131 -120 254 -146 381 -81 48 24 76 56
66 73 -18 31 -70 88 -79 88 -6 0 -28 -9 -50 -20 -45 -23 -70 -25 -103 -6 -23
12 -23 13 19 31 54 25 121 92 151 152 20 42 23 63 23 158 0 103 -2 113 -29
163 -38 67 -102 127 -174 160 -47 21 -74 27 -152 29 -63 2 -110 -2 -140 -12z
m200 -187 c59 -30 90 -84 90 -156 0 -107 -61 -172 -162 -172 -69 0 -114 28
-145 90 -80 156 65 314 217 238z"/>
<path d="M6231 1040 c-30 -11 -72 -32 -93 -47 -193 -133 -196 -436 -5 -567 78
-53 129 -69 232 -70 95 -1 183 22 253 64 l32 20 0 145 0 145 -95 0 -94 0 -3
-92 -3 -93 -40 -8 c-76 -16 -158 21 -192 86 -25 49 -23 134 5 179 52 84 178
103 269 39 l46 -33 63 63 64 63 -31 32 c-17 18 -59 45 -93 60 -83 38 -233 45
-315 14z"/>
<path d="M7795 1047 c-117 -39 -181 -122 -173 -228 8 -105 61 -149 236 -195
120 -32 134 -39 130 -67 -7 -50 -158 -46 -261 8 -27 14 -51 24 -53 22 -7 -7
-64 -137 -64 -146 0 -16 108 -62 183 -78 81 -17 176 -12 249 12 52 18 122 74
142 114 36 71 25 154 -27 209 -42 45 -64 55 -182 86 -129 34 -145 41 -145 65
0 57 130 55 271 -3 11 -5 21 10 43 64 15 40 25 78 22 85 -2 7 -31 23 -63 35
-72 28 -245 37 -308 17z"/>
<path d="M2246 715 c-80 -184 -146 -339 -146 -345 0 -12 189 -14 206 -2 5 4
21 33 33 65 l23 57 129 0 128 0 20 -47 c35 -82 29 -78 136 -81 54 -1 102 1
106 5 4 4 -28 89 -72 188 -44 99 -110 251 -147 337 l-67 158 -101 0 -101 0
-147 -335z m257 88 c2 -10 16 -48 30 -85 l26 -68 -68 0 -68 0 31 85 c17 46 34
85 37 85 4 0 9 -8 12 -17z"/>
<path d="M3052 708 l3 -343 260 0 260 0 0 85 0 85 -157 3 -158 3 0 254 0 255
-105 0 -105 0 2 -342z"/>
<path d="M4682 818 c5 -253 8 -272 65 -351 23 -33 49 -54 99 -78 62 -31 76
-34 159 -34 83 0 97 3 158 33 37 19 79 49 96 69 58 70 64 105 69 361 l4 232
-105 0 -106 0 -3 -217 c-3 -251 -9 -274 -77 -294 -59 -18 -104 1 -130 55 -19
39 -21 61 -21 249 l0 207 -106 0 -106 0 4 -232z"/>
<path d="M5570 705 l0 -346 103 3 102 3 3 343 2 342 -105 0 -105 0 0 -345z"/>
<path d="M6882 708 l3 -343 275 0 275 0 3 83 3 82 -176 0 -175 0 0 50 0 49
148 3 147 3 3 78 3 77 -151 0 -151 0 3 48 3 47 168 3 167 2 0 80 0 80 -275 0
-275 0 2 -342z"/>
<path d="M8320 965 l0 -85 104 0 104 0 -5 -254 -4 -255 33 -6 c18 -3 67 -5
108 -3 l75 3 1 80 c0 44 1 160 2 258 l2 177 85 0 85 0 0 85 0 85 -295 0 -295
0 0 -85z"/>
<path d="M720 937 c-19 -6 -55 -32 -81 -57 -62 -59 -87 -137 -70 -214 6 -28
20 -64 31 -81 11 -16 20 -39 20 -49 0 -11 -29 -123 -65 -251 -36 -127 -65
-243 -65 -258 0 -26 2 -27 55 -27 l54 0 15 53 c75 268 136 503 136 522 0 8
-14 28 -32 43 -26 24 -32 37 -36 85 -4 54 -3 58 31 92 31 31 41 35 85 35 34 0
57 -6 74 -20 59 -46 63 -145 9 -191 -17 -14 -31 -34 -31 -44 0 -26 139 -558
149 -568 4 -4 135 -6 292 -5 l284 3 3 185 2 186 -90 78 c-56 49 -96 76 -105
72 -12 -4 -15 -33 -15 -161 l0 -155 -154 0 -155 0 -14 52 c-8 29 -28 104 -46
165 l-31 113 24 37 c68 104 49 236 -44 316 -62 52 -150 69 -230 44z"/>
<path d="M111 865 c-47 -36 -88 -71 -93 -78 -9 -14 -11 -608 -2 -631 3 -9 11
-16 16 -16 5 0 50 37 99 83 l89 82 -3 309 c-1 195 -6 310 -12 312 -5 2 -48
-26 -94 -61z"/>
<path d="M142 146 c-37 -35 -80 -75 -96 -89 -17 -16 -26 -32 -22 -42 4 -13 34
-15 190 -15 212 0 192 -10 221 106 27 105 27 104 -111 104 l-116 0 -66 -64z"/>
</g>
</svg>
